<?xml version="1.0" encoding="UTF-8" standalone="no"?><!DOCTYPE svg PUBLIC "-//W3C//DTD SVG 1.1//EN" "http://www.w3.org/Graphics/SVG/1.1/DTD/svg11.dtd"><!-- Generated by graphviz version 2.40.1 (20161225.0304)
 --><!-- Title: %0 Pages: 1 --><svg xmlns="http://www.w3.org/2000/svg" xmlns:xlink="http://www.w3.org/1999/xlink" width="1117pt" height="225pt" viewBox="0.00 0.00 1117.33 225.30">
<g id="graph0" class="graph" transform="scale(1 1) rotate(0) translate(4 221.3)">
<title>%0</title>
<polygon fill="#ffffff" stroke="transparent" points="-4,4 -4,-221.3 1113.326,-221.3 1113.326,4 -4,4"/>
<!-- CharacterSelect -->
<g id="node1" class="node">
<title>CharacterSelect</title>
<path fill="none" stroke="#000000" d="M12,-14.5C12,-14.5 92.6144,-14.5 92.6144,-14.5 98.6144,-14.5 104.6144,-20.5 104.6144,-26.5 104.6144,-26.5 104.6144,-38.5 104.6144,-38.5 104.6144,-44.5 98.6144,-50.5 92.6144,-50.5 92.6144,-50.5 12,-50.5 12,-50.5 6,-50.5 0,-44.5 0,-38.5 0,-38.5 0,-26.5 0,-26.5 0,-20.5 6,-14.5 12,-14.5"/>
<text text-anchor="middle" x="52.3072" y="-28.4" font-family="Times,serif" font-size="14.00" fill="#000000">CharacterSelect</text>
</g>
<!-- NewWave -->
<g id="node2" class="node">
<title>NewWave</title>
<path fill="none" stroke="#000000" d="M212.4798,-87.5C212.4798,-87.5 263.5514,-87.5 263.5514,-87.5 269.5514,-87.5 275.5514,-93.5 275.5514,-99.5 275.5514,-99.5 275.5514,-111.5 275.5514,-111.5 275.5514,-117.5 269.5514,-123.5 263.5514,-123.5 263.5514,-123.5 212.4798,-123.5 212.4798,-123.5 206.4798,-123.5 200.4798,-117.5 200.4798,-111.5 200.4798,-111.5 200.4798,-99.5 200.4798,-99.5 200.4798,-93.5 206.4798,-87.5 212.4798,-87.5"/>
<text text-anchor="middle" x="238.0156" y="-101.4" font-family="Times,serif" font-size="14.00" fill="#000000">NewWave</text>
</g>
<!-- CharacterSelect&#45;&gt;NewWave -->
<g id="edge5" class="edge">
<title>CharacterSelect-&gt;NewWave</title>
<path fill="none" stroke="#000000" d="M98.2127,-50.5449C126.4873,-61.6594 162.6436,-75.8721 191.1027,-87.059"/>
<polygon fill="#000000" stroke="#000000" points="189.8492,-90.327 200.4365,-90.728 192.4102,-83.8122 189.8492,-90.327"/>
<text text-anchor="middle" x="152.5471" y="-86.7" font-family="Times,serif" font-size="14.00" fill="#000000">GameStart</text>
</g>
<!-- Wave -->
<g id="node7" class="node">
<title>Wave</title>
<path fill="none" stroke="#000000" d="M382.6342,-87.5C382.6342,-87.5 412.6342,-87.5 412.6342,-87.5 418.6342,-87.5 424.6342,-93.5 424.6342,-99.5 424.6342,-99.5 424.6342,-111.5 424.6342,-111.5 424.6342,-117.5 418.6342,-123.5 412.6342,-123.5 412.6342,-123.5 382.6342,-123.5 382.6342,-123.5 376.6342,-123.5 370.6342,-117.5 370.6342,-111.5 370.6342,-111.5 370.6342,-99.5 370.6342,-99.5 370.6342,-93.5 376.6342,-87.5 382.6342,-87.5"/>
<text text-anchor="middle" x="397.6342" y="-101.4" font-family="Times,serif" font-size="14.00" fill="#000000">Wave</text>
</g>
<!-- NewWave&#45;&gt;Wave -->
<g id="edge6" class="edge">
<title>NewWave-&gt;Wave</title>
<path fill="none" stroke="#000000" d="M275.843,-105.5C301.4474,-105.5 335.1109,-105.5 360.556,-105.5"/>
<polygon fill="#000000" stroke="#000000" points="360.5628,-109.0001 370.5627,-105.5 360.5627,-102.0001 360.5628,-109.0001"/>
<text text-anchor="middle" x="323.0928" y="-109.7" font-family="Times,serif" font-size="14.00" fill="#000000">StartWave</text>
</g>
<!-- WaveAnimWait -->
<g id="node3" class="node">
<title>WaveAnimWait</title>
<path fill="none" stroke="#000000" d="M1013.584,-80.5C1013.584,-80.5 1097.326,-80.5 1097.326,-80.5 1103.326,-80.5 1109.326,-86.5 1109.326,-92.5 1109.326,-92.5 1109.326,-104.5 1109.326,-104.5 1109.326,-110.5 1103.326,-116.5 1097.326,-116.5 1097.326,-116.5 1013.584,-116.5 1013.584,-116.5 1007.584,-116.5 1001.584,-110.5 1001.584,-104.5 1001.584,-104.5 1001.584,-92.5 1001.584,-92.5 1001.584,-86.5 1007.584,-80.5 1013.584,-80.5"/>
<text text-anchor="middle" x="1055.455" y="-94.4" font-family="Times,serif" font-size="14.00" fill="#000000">WaveAnimWait</text>
</g>
<!-- WaveAnimWait&#45;&gt;Wave -->
<g id="edge7" class="edge">
<title>WaveAnimWait-&gt;Wave</title>
<path fill="none" stroke="#000000" d="M1001.3665,-106.0058C995.3764,-106.6187 989.3573,-107.1399 983.584,-107.5 776.5709,-120.4111 527.6201,-111.4874 434.8508,-107.3196"/>
<polygon fill="#000000" stroke="#000000" points="434.9819,-103.8221 424.8322,-106.8605 434.6614,-110.8147 434.9819,-103.8221"/>
<text text-anchor="middle" x="716.9955" y="-118.7" font-family="Times,serif" font-size="14.00" fill="#000000">WaveContinue</text>
</g>
<!-- Defeat -->
<g id="node4" class="node">
<title>Defeat</title>
<path fill="none" stroke="#000000" d="M597.4569,-.5C597.4569,-.5 627.4569,-.5 627.4569,-.5 633.4569,-.5 639.4569,-6.5 639.4569,-12.5 639.4569,-12.5 639.4569,-24.5 639.4569,-24.5 639.4569,-30.5 633.4569,-36.5 627.4569,-36.5 627.4569,-36.5 597.4569,-36.5 597.4569,-36.5 591.4569,-36.5 585.4569,-30.5 585.4569,-24.5 585.4569,-24.5 585.4569,-12.5 585.4569,-12.5 585.4569,-6.5 591.4569,-.5 597.4569,-.5"/>
<text text-anchor="middle" x="612.4569" y="-14.4" font-family="Times,serif" font-size="14.00" fill="#000000">Defeat</text>
</g>
<!-- Defeat&#45;&gt;CharacterSelect -->
<g id="edge1" class="edge">
<title>Defeat-&gt;CharacterSelect</title>
<path fill="none" stroke="#000000" d="M585.3437,-19.1776C500.2086,-21.3055 236.6706,-27.8921 115.0202,-30.9326"/>
<polygon fill="#000000" stroke="#000000" points="114.6624,-27.4403 104.753,-31.1892 114.8373,-34.4382 114.6624,-27.4403"/>
<text text-anchor="middle" x="323.0928" y="-30.7" font-family="Times,serif" font-size="14.00" fill="#000000">StartOver</text>
</g>
<!-- GameOver -->
<g id="node10" class="node">
<title>GameOver</title>
<path fill="none" stroke="#000000" d="M801.4352,-.5C801.4352,-.5 854.8434,-.5 854.8434,-.5 860.8434,-.5 866.8434,-6.5 866.8434,-12.5 866.8434,-12.5 866.8434,-24.5 866.8434,-24.5 866.8434,-30.5 860.8434,-36.5 854.8434,-36.5 854.8434,-36.5 801.4352,-36.5 801.4352,-36.5 795.4352,-36.5 789.4352,-30.5 789.4352,-24.5 789.4352,-24.5 789.4352,-12.5 789.4352,-12.5 789.4352,-6.5 795.4352,-.5 801.4352,-.5"/>
<text text-anchor="middle" x="828.1393" y="-14.4" font-family="Times,serif" font-size="14.00" fill="#000000">GameOver</text>
</g>
<!-- Defeat&#45;&gt;GameOver -->
<g id="edge2" class="edge">
<title>Defeat-&gt;GameOver</title>
<path fill="none" stroke="#000000" d="M639.7732,-18.5C674.8234,-18.5 736.2406,-18.5 779.3934,-18.5"/>
<polygon fill="#000000" stroke="#000000" points="779.3968,-22.0001 789.3967,-18.5 779.3967,-15.0001 779.3968,-22.0001"/>
<text text-anchor="middle" x="716.9955" y="-22.7" font-family="Times,serif" font-size="14.00" fill="#000000">IGiveUp</text>
</g>
<!-- Victory -->
<g id="node5" class="node">
<title>Victory</title>
<path fill="none" stroke="#000000" d="M595.0754,-150.5C595.0754,-150.5 629.8384,-150.5 629.8384,-150.5 635.8384,-150.5 641.8384,-156.5 641.8384,-162.5 641.8384,-162.5 641.8384,-174.5 641.8384,-174.5 641.8384,-180.5 635.8384,-186.5 629.8384,-186.5 629.8384,-186.5 595.0754,-186.5 595.0754,-186.5 589.0754,-186.5 583.0754,-180.5 583.0754,-174.5 583.0754,-174.5 583.0754,-162.5 583.0754,-162.5 583.0754,-156.5 589.0754,-150.5 595.0754,-150.5"/>
<text text-anchor="middle" x="612.4569" y="-164.4" font-family="Times,serif" font-size="14.00" fill="#000000">Victory</text>
</g>
<!-- Store -->
<g id="node6" class="node">
<title>Store</title>
<path fill="none" stroke="#000000" d="M813.1393,-180.5C813.1393,-180.5 843.1393,-180.5 843.1393,-180.5 849.1393,-180.5 855.1393,-186.5 855.1393,-192.5 855.1393,-192.5 855.1393,-204.5 855.1393,-204.5 855.1393,-210.5 849.1393,-216.5 843.1393,-216.5 843.1393,-216.5 813.1393,-216.5 813.1393,-216.5 807.1393,-216.5 801.1393,-210.5 801.1393,-204.5 801.1393,-204.5 801.1393,-192.5 801.1393,-192.5 801.1393,-186.5 807.1393,-180.5 813.1393,-180.5"/>
<text text-anchor="middle" x="828.1393" y="-194.4" font-family="Times,serif" font-size="14.00" fill="#000000">Store</text>
</g>
<!-- Victory&#45;&gt;Store -->
<g id="edge3" class="edge">
<title>Victory-&gt;Store</title>
<path fill="none" stroke="#000000" d="M642.0006,-170.7058C672.716,-173.2195 722.1286,-177.8826 764.4366,-184.7 773.1088,-186.0974 782.3789,-187.9162 791.0869,-189.7723"/>
<polygon fill="#000000" stroke="#000000" points="790.4636,-193.2188 800.9816,-191.9454 791.9652,-186.3817 790.4636,-193.2188"/>
<text text-anchor="middle" x="716.9955" y="-189.7" font-family="Times,serif" font-size="14.00" fill="#000000">LetsGoShopping</text>
</g>
<!-- Store&#45;&gt;NewWave -->
<g id="edge4" class="edge">
<title>Store-&gt;NewWave</title>
<path fill="none" stroke="#000000" d="M800.8698,-200.0666C789.5963,-200.6408 776.3908,-201.2187 764.4366,-201.5 722.2784,-202.4921 711.7038,-202.8132 669.5544,-201.5 568.4674,-198.3505 541.1939,-207.1824 442.6342,-184.5 386.3445,-171.5455 324.9232,-146.2075 284.2134,-127.7088"/>
<polygon fill="#000000" stroke="#000000" points="285.6377,-124.5115 275.0894,-123.5196 282.7168,-130.873 285.6377,-124.5115"/>
<text text-anchor="middle" x="498.9968" y="-204.7" font-family="Times,serif" font-size="14.00" fill="#000000">BackIntoTheBreach</text>
</g>
<!-- Wave&#45;&gt;Defeat -->
<g id="edge10" class="edge">
<title>Wave-&gt;Defeat</title>
<path fill="none" stroke="#000000" d="M410.1775,-87.1156C418.2578,-76.6578 429.6594,-64.1906 442.6342,-56.7 464.8779,-43.8583 532.4564,-31.2281 575.3577,-24.1904"/>
<polygon fill="#000000" stroke="#000000" points="576.1119,-27.6141 585.4271,-22.5667 574.9975,-20.7034 576.1119,-27.6141"/>
<text text-anchor="middle" x="498.9968" y="-61.7" font-family="Times,serif" font-size="14.00" fill="#000000">WaveDefeat</text>
</g>
<!-- Wave&#45;&gt;Victory -->
<g id="edge9" class="edge">
<title>Wave-&gt;Victory</title>
<path fill="none" stroke="#000000" d="M420.9304,-123.5568C427.6364,-128.0374 435.1655,-132.4303 442.6342,-135.5 485.0546,-152.9354 537.2921,-161.3122 572.5414,-165.2335"/>
<polygon fill="#000000" stroke="#000000" points="572.597,-168.7581 582.9057,-166.3125 573.3219,-161.7958 572.597,-168.7581"/>
<text text-anchor="middle" x="498.9968" y="-167.7" font-family="Times,serif" font-size="14.00" fill="#000000">WaveVictory</text>
</g>
<!-- WaveInput -->
<g id="node8" class="node">
<title>WaveInput</title>
<path fill="none" stroke="#000000" d="M585.3594,-56.5C585.3594,-56.5 639.5544,-56.5 639.5544,-56.5 645.5544,-56.5 651.5544,-62.5 651.5544,-68.5 651.5544,-68.5 651.5544,-80.5 651.5544,-80.5 651.5544,-86.5 645.5544,-92.5 639.5544,-92.5 639.5544,-92.5 585.3594,-92.5 585.3594,-92.5 579.3594,-92.5 573.3594,-86.5 573.3594,-80.5 573.3594,-80.5 573.3594,-68.5 573.3594,-68.5 573.3594,-62.5 579.3594,-56.5 585.3594,-56.5"/>
<text text-anchor="middle" x="612.4569" y="-70.4" font-family="Times,serif" font-size="14.00" fill="#000000">WaveInput</text>
</g>
<!-- Wave&#45;&gt;WaveInput -->
<g id="edge8" class="edge">
<title>Wave-&gt;WaveInput</title>
<path fill="none" stroke="#000000" d="M424.9755,-95.4345C430.7433,-93.6154 436.8385,-91.9137 442.6342,-90.7 482.6968,-82.3106 528.9972,-78.2579 563.1244,-76.3046"/>
<polygon fill="#000000" stroke="#000000" points="563.5043,-79.7894 573.3044,-75.7633 563.1326,-72.7993 563.5043,-79.7894"/>
<text text-anchor="middle" x="498.9968" y="-95.7" font-family="Times,serif" font-size="14.00" fill="#000000">GetWaveInput</text>
</g>
<!-- WaveProcess -->
<g id="node9" class="node">
<title>WaveProcess</title>
<path fill="none" stroke="#000000" d="M794.4366,-56.5C794.4366,-56.5 861.842,-56.5 861.842,-56.5 867.842,-56.5 873.842,-62.5 873.842,-68.5 873.842,-68.5 873.842,-80.5 873.842,-80.5 873.842,-86.5 867.842,-92.5 861.842,-92.5 861.842,-92.5 794.4366,-92.5 794.4366,-92.5 788.4366,-92.5 782.4366,-86.5 782.4366,-80.5 782.4366,-80.5 782.4366,-68.5 782.4366,-68.5 782.4366,-62.5 788.4366,-56.5 794.4366,-56.5"/>
<text text-anchor="middle" x="828.1393" y="-70.4" font-family="Times,serif" font-size="14.00" fill="#000000">WaveProcess</text>
</g>
<!-- WaveInput&#45;&gt;WaveProcess -->
<g id="edge11" class="edge">
<title>WaveInput-&gt;WaveProcess</title>
<path fill="none" stroke="#000000" d="M652.0164,-74.5C685.5872,-74.5 734.155,-74.5 771.7898,-74.5"/>
<polygon fill="#000000" stroke="#000000" points="772.0933,-78.0001 782.0933,-74.5 772.0932,-71.0001 772.0933,-78.0001"/>
<text text-anchor="middle" x="716.9955" y="-78.7" font-family="Times,serif" font-size="14.00" fill="#000000">WaveProcessing</text>
</g>
<!-- WaveProcess&#45;&gt;WaveAnimWait -->
<g id="edge12" class="edge">
<title>WaveProcess-&gt;WaveAnimWait</title>
<path fill="none" stroke="#000000" d="M874.0562,-79.2334C905.007,-82.4368 946.7551,-86.7824 983.584,-90.7 986.0957,-90.9672 988.6566,-91.2405 991.2436,-91.5175"/>
<polygon fill="#000000" stroke="#000000" points="990.9846,-95.0097 1001.3013,-92.5978 991.7323,-88.0498 990.9846,-95.0097"/>
<text text-anchor="middle" x="937.713" y="-95.7" font-family="Times,serif" font-size="14.00" fill="#000000">WaveAnimWait</text>
</g>
</g>
</svg>